<svg class="next-arrow" width="57" height="30" viewBox="0 0 57 30" fill="none" xmlns="http://www.w3.org/2000/svg">
<style>
	.first {
		fill-opacity: 0.2;
	}
	.second {
		fill-opacity: 0.6;
	}
</style>
<path class="first" d="M15.9731 14.4019L1.82109 0.249908C1.48788 -0.0833028 0.953481 -0.0833028 0.62027 0.249908C0.287059 0.583119 0.287059 1.11751 0.62027 1.45073L14.1688 14.9992L0.62027 28.5477C0.287059 28.8809 0.287059 29.4153 0.62027 29.7485C0.783732 29.912 1.00378 30 1.21753 30C1.43129 30 1.65134 29.9183 1.8148 29.7485L15.9668 15.5965C16.3001 15.2696 16.3 14.7289 15.9731 14.4019Z" fill="white">
	
</path>
<path class="second" d="M35.9731 14.4019L21.8211 0.249908C21.4879 -0.0833028 20.9535 -0.0833028 20.6203 0.249908C20.2871 0.583119 20.2871 1.11751 20.6203 1.45073L34.1688 14.9992L20.6203 28.5477C20.2871 28.8809 20.2871 29.4153 20.6203 29.7485C20.7837 29.912 21.0038 30 21.2175 30C21.4313 30 21.6513 29.9183 21.8148 29.7485L35.9668 15.5965C36.3001 15.2696 36.3 14.7289 35.9731 14.4019Z" fill="white">
	
</path>
<path d="M55.9731 14.4019L41.8211 0.249908C41.4879 -0.0833028 40.9535 -0.0833028 40.6203 0.249908C40.2871 0.583119 40.2871 1.11751 40.6203 1.45073L54.1688 14.9992L40.6203 28.5477C40.2871 28.8809 40.2871 29.4153 40.6203 29.7485C40.7837 29.912 41.0038 30 41.2175 30C41.4313 30 41.6513 29.9183 41.8148 29.7485L55.9668 15.5965C56.3001 15.2696 56.3 14.7289 55.9731 14.4019Z" fill="white"/>
</svg>
